<?xml version="1.0" encoding="UTF-8" standalone="no"?>
<!-- Created with Inkscape (http://www.inkscape.org/) -->

<svg
   xmlns:dc="http://purl.org/dc/elements/1.1/"
   xmlns:cc="http://creativecommons.org/ns#"
   xmlns:rdf="http://www.w3.org/1999/02/22-rdf-syntax-ns#"
   xmlns:svg="http://www.w3.org/2000/svg"
   xmlns="http://www.w3.org/2000/svg"
   xmlns:sodipodi="http://sodipodi.sourceforge.net/DTD/sodipodi-0.dtd"
   xmlns:inkscape="http://www.inkscape.org/namespaces/inkscape"
   id="svg3031"
   version="1.1"
   inkscape:version="0.48.4 r9939"
   width="531.5"
   height="531.5"
   xml:space="preserve"
   sodipodi:docname="COLOURBOX5531327.eps"><metadata
     id="metadata3037"><rdf:RDF><cc:Work
         rdf:about=""><dc:format>image/svg+xml</dc:format><dc:type
           rdf:resource="http://purl.org/dc/dcmitype/StillImage" /><dc:title></dc:title></cc:Work></rdf:RDF></metadata><defs
     id="defs3035" /><sodipodi:namedview
     pagecolor="#ffffff"
     bordercolor="#666666"
     borderopacity="1"
     objecttolerance="10"
     gridtolerance="10"
     guidetolerance="10"
     inkscape:pageopacity="0"
     inkscape:pageshadow="2"
     inkscape:window-width="1536"
     inkscape:window-height="814"
     id="namedview3033"
     showgrid="false"
     inkscape:zoom="0.44402634"
     inkscape:cx="265.75"
     inkscape:cy="265.75"
     inkscape:window-x="-8"
     inkscape:window-y="-8"
     inkscape:window-maximized="1"
     inkscape:current-layer="g3039" /><g
     id="g3039"
     inkscape:groupmode="layer"
     inkscape:label="ink_ext_XXXXXX"
     transform="matrix(1.25,0,0,-1.25,0,531.5)"><path
       inkscape:connector-curvature="0"
       id="path3067"
       style="fill:#5ebe0b;fill-opacity:1;fill-rule:nonzero;stroke:none"
       d="m 361.2678,209.79831 c 0,-82.107 -66.561,-148.668005 -148.667,-148.668005 -82.108,0 -148.668599,66.561005 -148.668599,148.668005 0,82.107 66.560599,148.668 148.668599,148.668 82.106,0 148.667,-66.561 148.667,-148.668" /><path
       inkscape:connector-curvature="0"
       id="path3069"
       style="fill:#c1f695;fill-opacity:1;fill-rule:nonzero;stroke:none"
       d="m 212.6008,349.46631 c -76.462,0 -138.668599,-62.207 -138.668599,-138.668 0,-76.462 62.206599,-138.668005 138.668599,-138.668005 76.461,0 138.667,62.206005 138.667,138.668005 0,76.461 -62.206,138.668 -138.667,138.668 l 0,0 z m 0,-297.336005 c -87.49,0 -158.668599,71.178005 -158.668599,158.668005 0,87.49 71.178599,158.668 158.668599,158.668 87.489,0 158.667,-71.178 158.667,-158.668 0,-87.49 -71.178,-158.668005 -158.667,-158.668005 l 0,0" /><g
       id="g3103"
       transform="matrix(0.73232348,0,0,0.61440286,-4.1002114,88.452405)"
       style="fill:#c1f695;fill-opacity:1"><path
         d="m 325,203.2 c 0,4.4 -3.6,8 -8,8 l -38,0 c -4.4,0 -8,-3.6 -8,-8 l 0,-88 c 0,-4.4 3.6,-8 8,-8 l 38,0 c 4.4,0 8,3.6 8,8 l 0,88"
         style="fill:#c1f695;fill-opacity:1;fill-rule:nonzero;stroke:none"
         id="path3043"
         inkscape:connector-curvature="0" /><path
         d="m 333,107.2 c 0,-4.4 -3.6,-8 -8,-8 l -54,0 c -4.4,0 -8,3.6 -8,8 l 0,104 c 0,4.4 3.6,8 8,8 l 54,0 c 4.4,0 8,-3.6 8,-8 l 0,-104 z m -9.179,183.859 c -4.347,0.68 -7.904,4.835 -7.904,9.235 l 0,68.906 -37.897,0 0,-68.906 c 0,-4.4 -3.557,-8.555 -7.905,-9.235 0,0 -22.929,-3.582 -22.929,-42.124 0,-38.542 0,-213.335 0,-213.335 0,-4.4 3.599,-7.9852 8,-7.9668 l 33.781,0.134 c 4.4,0.018 11.599,0.018 16,0 l 33.784,-0.134 c 4.4,-0.0184 8,3.5668 8,7.9668 0,0 0,174.793 0,213.335 0,38.542 -22.93,42.124 -22.93,42.124"
         style="fill:#c1f695;fill-opacity:1;fill-rule:nonzero;stroke:none"
         id="path3047"
         inkscape:connector-curvature="0" /><path
         d="m 315.917,389.6 c 0,4.4 -3.6,8 -8,8 l -2.307,0 c -4.4,0 -8.289,0 -8.641,0 -0.354,0 -4.242,0 -8.643,0 l -2.306,0 c -4.401,0 -8,-3.6 -8,-8 l 0,-8.4 37.897,0 0,8.4"
         style="fill:#c1f695;fill-opacity:1;fill-rule:nonzero;stroke:none"
         id="path3049"
         inkscape:connector-curvature="0" /></g></g></svg>