<?xml version="1.0" encoding="UTF-8" standalone="no"?>
<!-- Created with Inkscape (http://www.inkscape.org/) -->

<svg
   xmlns:dc="http://purl.org/dc/elements/1.1/"
   xmlns:cc="http://creativecommons.org/ns#"
   xmlns:rdf="http://www.w3.org/1999/02/22-rdf-syntax-ns#"
   xmlns:svg="http://www.w3.org/2000/svg"
   xmlns="http://www.w3.org/2000/svg"
   xmlns:sodipodi="http://sodipodi.sourceforge.net/DTD/sodipodi-0.dtd"
   xmlns:inkscape="http://www.inkscape.org/namespaces/inkscape"
   id="svg3903"
   version="1.1"
   inkscape:version="0.48.4 r9939"
   width="55.9375"
   height="55.9375"
   xml:space="preserve"
   sodipodi:docname="gruen.svg"><metadata
     id="metadata3909"><rdf:RDF><cc:Work
         rdf:about=""><dc:format>image/svg+xml</dc:format><dc:type
           rdf:resource="http://purl.org/dc/dcmitype/StillImage" /><dc:title></dc:title></cc:Work></rdf:RDF></metadata><defs
     id="defs3907"><clipPath
       clipPathUnits="userSpaceOnUse"
       id="clipPath3919"><path
         d="m 0,0 447.5,0 0,447 L 0,447 0,0 z"
         id="path3921" /></clipPath></defs><sodipodi:namedview
     pagecolor="#ffffff"
     bordercolor="#666666"
     borderopacity="1"
     objecttolerance="10"
     gridtolerance="10"
     guidetolerance="10"
     inkscape:pageopacity="0"
     inkscape:pageshadow="2"
     inkscape:window-width="1536"
     inkscape:window-height="814"
     id="namedview3905"
     showgrid="false"
     inkscape:zoom="1.580659"
     inkscape:cx="-70.724264"
     inkscape:cy="27.96875"
     inkscape:window-x="-8"
     inkscape:window-y="-8"
     inkscape:window-maximized="1"
     inkscape:current-layer="g3911" /><g
     id="g3911"
     inkscape:groupmode="layer"
     inkscape:label="ink_ext_XXXXXX"
     transform="matrix(1.25,0,0,-1.25,0,55.9375)"><path
       inkscape:connector-curvature="0"
       id="path3067"
       style="fill:#88290b;fill-opacity:1;fill-rule:nonzero;stroke:none"
       d="m 171.0428,21.375 c 0,-82.107 -66.561,-148.668 -148.667,-148.668 -82.108,0 -148.6686,66.561 -148.6686,148.668 0,82.107 66.5606,148.668 148.6686,148.668 82.106,0 148.667,-66.561 148.667,-148.668" /><path
       inkscape:connector-curvature="0"
       id="path3069"
       style="fill:#f7ac94;fill-opacity:1;fill-rule:nonzero;stroke:none"
       d="m 22.3758,161.043 c -76.462,0 -138.6686,-62.207 -138.6686,-138.668 0,-76.462 62.2066,-138.668 138.6686,-138.668 76.461,0 138.667,62.206 138.667,138.668 0,76.461 -62.206,138.668 -138.667,138.668 l 0,0 z m 0,-297.336 c -87.49,0 -158.6686,71.178 -158.6686,158.668 0,87.49 71.1786,158.668 158.6686,158.668 87.489,0 158.667,-71.178 158.667,-158.668 0,-87.49 -71.178,-158.668 -158.667,-158.668 l 0,0" /><path
       inkscape:connector-curvature="0"
       id="path3927"
       style="fill:#f7ac94;fill-opacity:1;fill-rule:nonzero;stroke:none"
       d="M 69.379615,125.58721 C 47.569056,122.05699 48.100963,98.33336 48.100963,98.33336 c 10.32788,14.2588 22.94903,13.087 22.94903,13.087 0,0 -9.963165,-11.01764 -12.3933,-19.149389 14.109559,-4.671646 24.95457,0.62954 29.708302,9.495219 4.404572,8.1933 12.120345,15.23271 16.783095,14.88912 -6.637176,4.83915 -19.25911,11.59497 -35.768475,8.9319 z M -4.9646327,60.269111 c -10.4344153,18.646845 -2.7334157,31.962124 -2.7334157,31.962124 0,0 5.6192512,-15.658895 16.898188,-22.521444 C 21.505567,82.912098 20.214679,97.66408 11.736811,106.44406 3.2465026,115.2186 1.1507547,127.55996 3.8997226,132.53547 -4.7818842,127.68152 -25.924448,114.87422 -24.770425,90.663631 -23.813148,70.364257 -4.9646327,60.269111 -4.9646327,60.269111 z M 58.717348,55.82497 C 42.708785,54.622778 28.537794,41.222573 29.114805,17.422581 c 17.087154,-3.134429 36.330712,7.365086 36.330712,7.365086 0,0 -4.055409,-19.8731917 -30.634475,-29.0832499 0,0 36.557785,-2.2212912 51.488534,19.9838269 14.170204,21.090966 7.244528,46.54972 2.930937,58.951863 C 87.590462,67.335791 74.740687,57.018593 58.717348,55.82497 z M -49.739772,1.4870961 c 0,0 20.953596,-16.8151171 42.2236934,-16.7083781 5.8019951,28.590064 -8.3993244,47.800219 -27.4663574,52.685345 -19.077143,4.89993 -32.36629,20.102256 -32.776884,29.287383 C -75.636068,52.71158 -90.687508,24.584316 -76.856969,-5.0108213 -62.974482,-34.729842 -19.035306,-40.207881 -19.035306,-40.207881 -49.102104,-23.362379 -49.739772,1.4870961 -49.739772,1.4870961 z M 34.051285,-83.182186 c -9.204186,-2.023629 -22.739843,-3.788896 -33.7364972,0.365409 0,0 -2.7940727,17.728253 -2.0957476,43.110653 -6.2118155,2.511126 -29.0854112,12.615624 -38.0407512,28.228549 14.110337,-9.496001 25.601571,-14.34996 38.7911759,-13.969748 1.5490653,20.0562878 5.5072687,43.144157 14.2160961,65.507439 -5.6503564,6.443377 -21.0111426,25.76261 -19.5841674,43.354519 4.1775005,-14.51124 15.437774,-29.293616 23.5571474,-33.91384 9.359713,20.467667 23.089781,39.839099 43.077546,55.126365 2.384253,1.83249 3.56938,2.45579 1.381871,0.41682 C 46.232287,90.581824 24.376624,55.855355 19.212297,10.493026 30.314708,7.9367109 42.541592,10.027109 55.61844,15.794204 45.867572,4.1322332 23.116064,-0.50590981 18.283012,-1.3886612 17.149987,-26.36046 21.232613,-54.101275 34.051285,-83.182186" /></g></svg>