<?xml version="1.0" encoding="UTF-8" standalone="no"?>
<!-- Created with Inkscape (http://www.inkscape.org/) -->

<svg
   xmlns:dc="http://purl.org/dc/elements/1.1/"
   xmlns:cc="http://creativecommons.org/ns#"
   xmlns:rdf="http://www.w3.org/1999/02/22-rdf-syntax-ns#"
   xmlns:svg="http://www.w3.org/2000/svg"
   xmlns="http://www.w3.org/2000/svg"
   xmlns:sodipodi="http://sodipodi.sourceforge.net/DTD/sodipodi-0.dtd"
   xmlns:inkscape="http://www.inkscape.org/namespaces/inkscape"
   id="svg3055"
   version="1.1"
   inkscape:version="0.48.4 r9939"
   width="531.5"
   height="531.5"
   xml:space="preserve"
   sodipodi:docname="glas.svg"><metadata
     id="metadata3061"><rdf:RDF><cc:Work
         rdf:about=""><dc:format>image/svg+xml</dc:format><dc:type
           rdf:resource="http://purl.org/dc/dcmitype/StillImage" /><dc:title></dc:title></cc:Work></rdf:RDF></metadata><defs
     id="defs3059" /><sodipodi:namedview
     pagecolor="#ffffff"
     bordercolor="#666666"
     borderopacity="1"
     objecttolerance="10"
     gridtolerance="10"
     guidetolerance="10"
     inkscape:pageopacity="0"
     inkscape:pageshadow="2"
     inkscape:window-width="640"
     inkscape:window-height="480"
     id="namedview3057"
     showgrid="false"
     inkscape:zoom="0.44402634"
     inkscape:cx="265.75"
     inkscape:cy="265.75"
     inkscape:window-x="32"
     inkscape:window-y="248"
     inkscape:window-maximized="0"
     inkscape:current-layer="g3063" /><g
     id="g3063"
     inkscape:groupmode="layer"
     inkscape:label="ink_ext_XXXXXX"
     transform="matrix(1.25,0,0,-1.25,0,531.5)"><g
       id="g3065"
       transform="scale(0.1,0.1)"><path
         d="m 3632.68,2105.36 c 0,-821.07 -665.61,-1486.68 -1486.67,-1486.68 -821.08,0 -1486.686,665.61 -1486.686,1486.68 0,821.07 665.606,1486.68 1486.686,1486.68 821.06,0 1486.67,-665.61 1486.67,-1486.68"
         style="fill:#e81853;fill-opacity:1;fill-rule:nonzero;stroke:none"
         id="path3067" /><path
         d="m 2146.01,3502.04 c -764.62,0 -1386.686,-622.07 -1386.686,-1386.68 0,-764.62 622.066,-1386.68 1386.686,-1386.68 764.61,0 1386.67,622.06 1386.67,1386.68 0,764.61 -622.06,1386.68 -1386.67,1386.68 l 0,0 z m 0,-2973.36 c -874.9,0 -1586.686,711.78 -1586.686,1586.68 0,874.9 711.786,1586.68 1586.686,1586.68 874.89,0 1586.67,-711.78 1586.67,-1586.68 0,-874.9 -711.78,-1586.68 -1586.67,-1586.68 l 0,0"
         style="fill:#f794b5;fill-opacity:1;fill-rule:nonzero;stroke:none"
         id="path3069" /><path
         d="m 2856.98,2830.4 c -13.04,25.56 -46,53.84 -73.22,62.84 l -287.05,94.83 c -27.26,9 -63.54,-2.5 -80.63,-25.54 0,0 -120.76,-162.82 -256.46,-162.82 -134.6,0 -255.26,160.09 -255.26,160.09 -17.28,22.91 -53.7,34.3 -80.94,25.3 l -278.05,-91.86 c -27.24,-9 -60.2,-37.28 -73.23,-62.84 l -238.12,-466.82 c -13.04,-25.54 -2.76,-57.06 22.85,-70.01 l 233.74,-118.21 c 25.6,-12.96 57.45,-2.75 70.76,22.67 l 75.56,144.24 c 13.31,25.42 24.21,22.73 24.21,-5.95 l 0,-1026.47 c 0,-28.68 23.48,-52.17 52.17,-52.17 l 399.08,0 c 28.7,0 75.64,0 104.33,0 l 399.09,0 c 28.68,0 52.15,23.49 52.15,52.17 l 0,1026.47 c 0,28.68 10.91,31.37 24.22,5.95 l 75.57,-144.24 c 13.31,-25.42 45.15,-35.63 70.77,-22.67 l 233.73,118.21 c 25.61,12.95 35.88,44.47 22.86,70.01 l -238.13,466.82"
         style="fill:#f794b5;fill-opacity:1;fill-rule:nonzero;stroke:none"
         id="path3071" /></g></g></svg>