<?xml version="1.0" encoding="UTF-8" standalone="no"?>
<!-- Created with Inkscape (http://www.inkscape.org/) -->

<svg
   xmlns:dc="http://purl.org/dc/elements/1.1/"
   xmlns:cc="http://creativecommons.org/ns#"
   xmlns:rdf="http://www.w3.org/1999/02/22-rdf-syntax-ns#"
   xmlns:svg="http://www.w3.org/2000/svg"
   xmlns="http://www.w3.org/2000/svg"
   xmlns:sodipodi="http://sodipodi.sourceforge.net/DTD/sodipodi-0.dtd"
   xmlns:inkscape="http://www.inkscape.org/namespaces/inkscape"
   id="svg3876"
   version="1.1"
   inkscape:version="0.48.4 r9939"
   width="1000"
   height="1000"
   xml:space="preserve"
   sodipodi:docname="COLOURBOX6966366.eps"><metadata
     id="metadata3882"><rdf:RDF><cc:Work
         rdf:about=""><dc:format>image/svg+xml</dc:format><dc:type
           rdf:resource="http://purl.org/dc/dcmitype/StillImage" /><dc:title></dc:title></cc:Work></rdf:RDF></metadata><defs
     id="defs3880" /><sodipodi:namedview
     pagecolor="#ffffff"
     bordercolor="#666666"
     borderopacity="1"
     objecttolerance="10"
     gridtolerance="10"
     guidetolerance="10"
     inkscape:pageopacity="0"
     inkscape:pageshadow="2"
     inkscape:window-width="1536"
     inkscape:window-height="814"
     id="namedview3878"
     showgrid="false"
     inkscape:zoom="1.3350176"
     inkscape:cx="390.39808"
     inkscape:cy="512.52503"
     inkscape:window-x="-8"
     inkscape:window-y="-8"
     inkscape:window-maximized="1"
     inkscape:current-layer="g3884" /><g
     id="g3884"
     inkscape:groupmode="layer"
     inkscape:label="ink_ext_XXXXXX"
     transform="matrix(1.25,0,0,-1.25,0,1000)"><path
       inkscape:connector-curvature="0"
       id="path3067"
       style="fill:#105b6c;fill-opacity:1;fill-rule:nonzero;stroke:none"
       d="m 548.6678,399 c 0,-82.107 -66.561,-148.668 -148.667,-148.668 -82.108,0 -148.6686,66.561 -148.6686,148.668 0,82.107 66.5606,148.668 148.6686,148.668 82.106,0 148.667,-66.561 148.667,-148.668" /><path
       inkscape:connector-curvature="0"
       id="path3069"
       style="fill:#94e5f7;fill-opacity:1;fill-rule:nonzero;stroke:none"
       d="m 400.0008,538.668 c -76.462,0 -138.6686,-62.207 -138.6686,-138.668 0,-76.462 62.2066,-138.668 138.6686,-138.668 76.461,0 138.667,62.206 138.667,138.668 0,76.461 -62.206,138.668 -138.667,138.668 l 0,0 z m 0,-297.336 c -87.49,0 -158.6686,71.178 -158.6686,158.668 0,87.49 71.1786,158.668 158.6686,158.668 87.489,0 158.667,-71.178 158.667,-158.668 0,-87.49 -71.178,-158.668 -158.667,-158.668 l 0,0" /><g
       id="g3886"
       transform="matrix(0.03792199,0,0,0.03792199,246.47598,246.52841)"
       style="fill:#94e5f7;fill-opacity:1"><path
         d="m 6868.03,6084.88 c -209.61,-170.51 -328.75,-515.33 -459.2,-841.87 -127.99,-320.39 -279.64,-652.48 -459.22,-867.39 -113.61,-136 -273.44,-278.72 -448.44,-322.28 -88.96,630.04 -608.6,1128.26 -1264.56,1211.29 l -140.26,362.18 c -10.36,26.73 -23.17,42.04 -36.27,46.4 l 0,0.22 c -0.32,0.1 -0.66,0.09 -0.95,0.17 -1.01,0.29 -2.04,0.39 -3.04,0.55 -1.22,0.19 -2.44,0.43 -3.66,0.41 -1.22,0.02 -2.44,-0.22 -3.66,-0.41 -1.01,-0.16 -2.02,-0.26 -3.02,-0.55 -0.32,-0.08 -0.64,-0.06 -0.97,-0.17 l 0,-0.23 c -13.09,-4.35 -25.9,-19.66 -36.26,-46.39 l -140.31,-362.18 c -655.95,-83.03 -1175.6,-581.25 -1264.56,-1211.29 -175,43.56 -334.82,186.28 -448.44,322.28 -179.58,214.91 -331.24,547 -459.21,867.39 -130.45,326.54 -249.58,671.36 -459.21,841.87 -401.227,-1164.15 233.77,-2327.82 918.42,-2831.76 2.11,16.67 16.31,-184.51 13.6,-219.37 56.61,0.55 58.87,0.33 164.97,-10.23 -28.49,-100.56 -41.77,-216.32 -47.75,-339.4 1154.35,-329.48 2378.45,-329.31 3532.74,0.5 -5.98,122.9 -19.29,238.48 -47.73,338.9 106.11,10.56 108.37,10.78 164.98,10.23 -2.71,34.86 11.48,236.04 13.59,219.37 684.66,503.94 1319.66,1667.61 918.42,2831.76"
         style="fill:#94e5f7;fill-opacity:1;fill-rule:nonzero;stroke:none"
         id="path3888"
         inkscape:connector-curvature="0" /><path
         d="m 2282.39,2315.27 c 0.69,-79.13 1.39,-158.28 0.37,-235.67 6.35,-51.5 119.41,-38.27 153.07,-76.54 149.83,-170.43 934.36,-234.99 1377.62,-255.12 72.87,-3.31 150.71,-5.03 231.33,-5.46 l 0,-0.12 c 2.56,0 5.08,0.04 7.65,0.04 2.57,0 5.08,-0.04 7.65,-0.04 l 0,0.12 c 80.59,0.43 158.43,2.15 231.3,5.46 443.26,20.13 1227.78,84.69 1377.61,255.12 33.66,38.27 146.71,25.04 153.08,76.54 -1.03,77.56 -0.33,156.85 0.37,236.14 -1159.03,-313.18 -2380.97,-313.33 -3540.05,-0.47"
         style="fill:#94e5f7;fill-opacity:1;fill-rule:nonzero;stroke:none"
         id="path3890"
         inkscape:connector-curvature="0" /></g></g></svg>