<?xml version="1.0" encoding="UTF-8" standalone="no"?>
<svg
   xmlns:dc="http://purl.org/dc/elements/1.1/"
   xmlns:cc="http://creativecommons.org/ns#"
   xmlns:rdf="http://www.w3.org/1999/02/22-rdf-syntax-ns#"
   xmlns:svg="http://www.w3.org/2000/svg"
   xmlns="http://www.w3.org/2000/svg"
   xmlns:sodipodi="http://sodipodi.sourceforge.net/DTD/sodipodi-0.dtd"
   xmlns:inkscape="http://www.inkscape.org/namespaces/inkscape"
   height="1024"
   width="768"
   id="svg2"
   version="1.1"
   inkscape:version="0.48.4 r9939"
   sodipodi:docname="Octicons-trashcan.svg">
  <metadata
     id="metadata10">
    <rdf:RDF>
      <cc:Work
         rdf:about="">
        <dc:format>image/svg+xml</dc:format>
        <dc:type
           rdf:resource="http://purl.org/dc/dcmitype/StillImage" />
      </cc:Work>
    </rdf:RDF>
  </metadata>
  <defs
     id="defs8" />
  <sodipodi:namedview
     pagecolor="#ffffff"
     bordercolor="#666666"
     borderopacity="1"
     objecttolerance="10"
     gridtolerance="10"
     guidetolerance="10"
     inkscape:pageopacity="0"
     inkscape:pageshadow="2"
     inkscape:window-width="1596"
     inkscape:window-height="853"
     id="namedview6"
     showgrid="false"
     inkscape:zoom="0.23046875"
     inkscape:cx="384"
     inkscape:cy="512"
     inkscape:window-x="0"
     inkscape:window-y="22"
     inkscape:window-maximized="0"
     inkscape:current-layer="svg2" />
  <path
     d="M704 128H448c0 0 0-24.057 0-32 0-17.673-14.327-32-32-32s-32 14.327-32 32c0 17.673 0 32 0 32H128c-35.346 0-64 28.654-64 64v64c0 35.346 28.654 64 64 64v576c0 35.346 28.654 64 64 64h448c35.346 0 64-28.654 64-64V320c35.346 0 64-28.654 64-64v-64C768 156.654 739.346 128 704 128zM640 864c0 17.673-14.327 32-32 32H224c-17.673 0-32-14.327-32-32V320h64v480c0 17.673 14.327 32 32 32s32-14.327 32-32l0.387-480H384v480c0 17.673 14.327 32 32 32s32-14.327 32-32l0.387-480h64L512 800c0 17.673 14.327 32 32 32s32-14.327 32-32V320h64V864zM704 240c0 8.837-7.163 16-16 16H144c-8.837 0-16-7.163-16-16v-32c0-8.837 7.163-16 16-16h544c8.837 0 16 7.163 16 16V240z"
     id="path4"
     style="fill:#ffffff" />
</svg>
